<svg width="171" height="181" viewBox="0 0 171 181" fill="none" xmlns="http://www.w3.org/2000/svg">
<path d="M67.7995 0C49.5857 0 34.8395 14.758 34.8395 32.9647C34.8395 51.1714 49.5975 65.9271 67.7995 65.9271C85.9991 65.9271 100.759 51.169 100.759 32.9647C100.759 14.758 86.0061 0 67.7995 0ZM67.7995 61.9013C51.8189 61.9013 38.8558 48.943 38.8558 32.96C38.8558 16.9747 51.8094 4.01635 67.7995 4.01635C83.7871 4.01635 96.7408 16.9723 96.7408 32.96C96.7408 48.943 83.7895 61.9013 67.7995 61.9013Z" fill="white"/>
<path d="M78.227 32.4041C76.6369 31.3134 73.6241 30.1474 69.1979 28.9036V14.9371C71.8338 15.036 73.756 16.049 74.9574 17.9806C75.6028 19.0312 75.9962 20.282 76.1305 21.7354H81.148C81.049 18.4917 79.9866 15.8911 77.9561 13.9148C75.9138 11.9407 72.9951 10.8218 69.1979 10.5533V6.79368H66.4677V10.6051C62.6209 10.6475 59.6434 11.8277 57.5045 14.1621C55.3727 16.4942 54.3126 19.1136 54.3126 22.0181C54.3126 25.2689 55.3043 27.813 57.2784 29.6457C59.2524 31.4783 62.3194 32.7928 66.4653 33.5725V49.1974C63.231 48.9289 61.0167 47.7181 59.8248 45.5556C59.1464 44.3519 58.7436 42.4414 58.5763 39.822H53.5046C53.5046 43.1128 54.0559 45.7228 55.1371 47.6497C57.1158 51.2256 60.9084 53.1949 66.4677 53.5577V59.1217H69.1979V53.5577C72.6583 53.1737 75.2989 52.3916 77.1387 51.2091C80.4389 49.0678 82.0855 45.4567 82.0855 40.3685C82.0926 36.8562 80.8017 34.1967 78.227 32.4041ZM66.4677 28.3571C64.3264 27.9402 62.6351 27.1911 61.3607 26.124C60.1004 25.0498 59.4644 23.5728 59.4644 21.6766C59.4644 20.1077 60.0085 18.6072 61.0662 17.1773C62.138 15.7404 63.933 14.9819 66.4583 14.8829L66.4677 28.3571ZM75.9585 45.7629C74.7218 48.0031 72.4651 49.1974 69.1955 49.3434V34.2627C71.5841 34.9105 73.2755 35.5983 74.2907 36.3262C76.0527 37.57 76.9314 39.3862 76.9314 41.7724C76.9314 43.2918 76.611 44.618 75.9585 45.7629Z" fill="white"/>
<path d="M45.1237 82.7698L46.961 87.9522C60.9488 83.0054 76.4088 82.9512 90.479 87.8062L92.274 82.6073C77.0307 77.3519 60.2821 77.399 45.1237 82.7698Z" fill="white"/>
<path d="M170.768 114.936L170.622 112.526L168.213 112.364C166.154 112.227 163.636 112.314 161.327 112.401C160.043 112.453 158.616 112.519 157.598 112.498C152.267 102.51 144.901 95.0757 135.665 90.3856C136.035 85.2644 136.904 80.4613 139.676 78.1716L145.01 73.776L138.115 73.3026C128.263 72.6689 120.195 78.7653 115.392 83.6579C105.235 74.7748 87.5841 69.3569 68.348 69.3569C68.3056 69.3569 68.2561 69.3569 68.2161 69.3569C49.2344 69.3828 31.8899 74.5722 19.0823 83.8369L16.5217 82.0985C13.344 79.9313 9.82702 79.7499 6.86599 81.6368C2.23011 84.5978 0.307917 91.5022 1.12297 96.4773C1.56818 99.1697 2.7672 101.33 4.55276 102.741C-2.13958 115.009 -1.96762 134.82 8.52436 144.643C10.0602 157.549 12.5242 170.611 19.4592 179.598L20.279 180.66H46.2851L45.887 177.568C45.4819 174.397 45.0249 170.894 45.0838 167.132C57.1069 169.485 71.1441 170.216 85.2119 169.212C87.332 172.753 89.5157 176.406 92.1681 179.652L92.9926 180.663H115.602L118.714 180.39L118.283 177.264C117.628 172.486 116.956 167.57 117.816 162.88C124.631 161.229 149.54 154.207 166.799 136.229H166.804C170.952 131.906 171.397 124.865 170.768 114.936ZM162.844 132.41C143.961 152.065 115.282 157.813 115.004 157.87L113.296 158.202L112.858 159.879C111.489 165.038 111.824 170.088 112.467 175.16H95.6262C93.5579 172.449 91.7606 169.443 89.8667 166.282L88.1659 163.457L86.4534 163.587C71.137 164.849 55.7336 163.952 43.1074 161.083L40.0616 160.395L39.7624 163.511C39.3549 167.747 39.6423 171.707 40.0309 175.167H23.0138C17.3085 167.003 15.2332 154.895 13.8575 142.963L13.7327 141.889L12.9011 141.185C3.33255 133.107 3.69296 113.238 10.7104 103.228L13.0165 99.9424L9.12033 98.9813C7.72816 98.6374 6.86835 97.4878 6.55505 95.5868C6.22291 93.6364 6.59981 91.3773 7.38188 89.5117C7.18872 90.3691 7.2052 91.1912 7.44548 91.9756C7.79647 93.1417 8.97428 95.1463 12.8375 95.4408L14.1308 95.5491L15.033 94.6045C27.0114 82.0938 46.3864 74.8926 68.2066 74.8714C68.2537 74.8714 68.2962 74.8714 68.3338 74.8714C87.5275 74.8714 104.834 80.466 113.512 89.4928L115.604 91.66L117.571 89.3939C120.478 86.0583 125.776 80.9913 132.306 79.3188C130.779 82.9889 130.28 87.4575 130.042 91.9191L129.936 93.7824L131.634 94.5621C141.097 98.9153 148.211 106.039 153.384 116.356L153.992 117.577L155.33 117.829C156.651 118.085 158.552 118.027 161.508 117.916C162.771 117.871 164.119 117.817 165.398 117.812C165.692 123.989 165.402 129.746 162.844 132.41Z" fill="white"/>
<path d="M135.462 115.614C138.032 115.614 140.116 113.53 140.116 110.96C140.116 108.389 138.032 106.305 135.462 106.305C132.891 106.305 130.807 108.389 130.807 110.96C130.807 113.53 132.891 115.614 135.462 115.614Z" fill="white"/>
<path d="M0 180.341H139.619" stroke="white" stroke-width="0.8"/>
</svg>
