<svg width="24" height="24" viewBox="0 0 24 24" fill="none" xmlns="http://www.w3.org/2000/svg">
<g clip-path="url(#clip0_1308_1294)">
<path d="M7.76278 18.2531C7.76278 18.3469 7.65516 18.4219 7.51946 18.4219C7.36505 18.4359 7.25743 18.3609 7.25743 18.2531C7.25743 18.1594 7.36505 18.0844 7.50074 18.0844C7.64112 18.0703 7.76278 18.1453 7.76278 18.2531ZM6.30755 18.0422C6.2748 18.1359 6.36838 18.2437 6.50876 18.2719C6.63041 18.3187 6.77079 18.2719 6.79887 18.1781C6.82694 18.0844 6.73804 17.9766 6.59766 17.9344C6.476 17.9016 6.34031 17.9484 6.30755 18.0422ZM8.37575 17.9625C8.24006 17.9953 8.14647 18.0844 8.16051 18.1922C8.17455 18.2859 8.29621 18.3469 8.43658 18.3141C8.57228 18.2812 8.66586 18.1922 8.65183 18.0984C8.63779 18.0094 8.51145 17.9484 8.37575 17.9625ZM11.4547 0C4.96462 0 0 4.93594 0 11.4375C0 16.6359 3.26608 21.0844 7.93123 22.65C8.53017 22.7578 8.74073 22.3875 8.74073 22.0828C8.74073 21.7922 8.72669 20.1891 8.72669 19.2047C8.72669 19.2047 5.45126 19.9078 4.76342 17.8078C4.76342 17.8078 4.22999 16.4437 3.4626 16.0922C3.4626 16.0922 2.39107 15.3562 3.53747 15.3703C3.53747 15.3703 4.70259 15.4641 5.34364 16.5797C6.36838 18.3891 8.08564 17.8687 8.75477 17.5594C8.86239 16.8094 9.16654 16.2891 9.50344 15.9797C6.88777 15.6891 4.24871 15.3094 4.24871 10.8C4.24871 9.51094 4.60432 8.86406 5.353 8.03906C5.23134 7.73438 4.83361 6.47812 5.47465 4.85625C6.45261 4.55156 8.7033 6.12188 8.7033 6.12188C9.63914 5.85938 10.6452 5.72344 11.6418 5.72344C12.6385 5.72344 13.6445 5.85938 14.5804 6.12188C14.5804 6.12188 16.8311 4.54688 17.809 4.85625C18.4501 6.48281 18.0523 7.73438 17.9307 8.03906C18.6793 8.86875 19.1379 9.51562 19.1379 10.8C19.1379 15.3234 16.3819 15.6844 13.7662 15.9797C14.1967 16.35 14.5616 17.0531 14.5616 18.1547C14.5616 19.7344 14.5476 21.6891 14.5476 22.0734C14.5476 22.3781 14.7629 22.7484 15.3571 22.6406C20.0363 21.0844 23.2088 16.6359 23.2088 11.4375C23.2088 4.93594 17.9447 0 11.4547 0ZM4.54817 16.1672C4.48734 16.2141 4.50138 16.3219 4.58093 16.4109C4.6558 16.4859 4.76342 16.5188 4.82425 16.4578C4.88508 16.4109 4.87104 16.3031 4.79149 16.2141C4.71663 16.1391 4.609 16.1062 4.54817 16.1672ZM4.04282 15.7875C4.01007 15.8484 4.05686 15.9234 4.15044 15.9703C4.22531 16.0172 4.31889 16.0031 4.35165 15.9375C4.3844 15.8766 4.33761 15.8016 4.24403 15.7547C4.15044 15.7266 4.07558 15.7406 4.04282 15.7875ZM5.55888 17.4562C5.48401 17.5172 5.51209 17.6578 5.61971 17.7469C5.72733 17.8547 5.86303 17.8687 5.92386 17.7938C5.98469 17.7328 5.95661 17.5922 5.86303 17.5031C5.76009 17.3953 5.61971 17.3813 5.55888 17.4562ZM5.02545 16.7672C4.95058 16.8141 4.95058 16.9359 5.02545 17.0438C5.10032 17.1516 5.22666 17.1984 5.28749 17.1516C5.36235 17.0906 5.36235 16.9688 5.28749 16.8609C5.22198 16.7531 5.10032 16.7063 5.02545 16.7672Z" fill="#EEEEEE"/>
</g>
<defs>
<clipPath id="clip0_1308_1294">
<rect width="23.2088" height="24" fill="white"/>
</clipPath>
</defs>
</svg>
